<svg xmlns="http://www.w3.org/2000/svg" width="512.047" height="146.27" viewBox="0 0 135.4791 38.700606">
  <g transform="matrix(1.4223522,0,0,1.4223522,-5.7342753e-6,-4.8528547e-6)">
    <g transform="matrix(1.7008929,0,0,1.7008929,-1318.4131,-590.40183)">
      <path d="m 783.011,355.275 -3.435,-3.225 a 1.182,1.182 0 0 1 -0.389,-0.874 1.238,1.238 0 0 1 1.257,-1.218 h 3.807 v -1.688 h -5.818 A 3.172,3.172 0 0 0 776,353.62 l 4.052,3.909 a 1.279,1.279 0 0 1 0.444,1.339 c -0.238,0.833 -1.271,0.833 -1.656,0.833 h -3.71 v 3.408 h 5.625 a 4.048,4.048 0 0 0 4.12,-3.976 V 359.1 a 4.922,4.922 0 0 0 -1.864,-3.827" fill="#0085cd"></path>
      <path d="m 805.723,355.275 -3.44,-3.225 a 1.184,1.184 0 0 1 -0.387,-0.874 1.238,1.238 0 0 1 1.26,-1.218 h 3.8 v -1.688 h -5.813 a 3.169,3.169 0 0 0 -2.435,5.35 l 4.051,3.909 a 1.279,1.279 0 0 1 0.444,1.339 c -0.24,0.833 -1.272,0.833 -1.659,0.833 h -3.708 v 3.408 h 5.625 a 4.049,4.049 0 0 0 4.122,-3.976 V 359.1 a 4.944,4.944 0 0 0 -1.861,-3.827" fill="#0085cd"></path>
      <path d="m 797.054,358.8 a 4.311,4.311 0 0 0 -2.919,-4.179 3.227,3.227 0 0 0 0.994,-5.618 5.132,5.132 0 0 0 -2.728,-0.712 h -6.423 v 14.817 h 6.83 a 4.83,4.83 0 0 0 2.781,-1.014 4.451,4.451 0 0 0 1.461,-3.293 m -7.6,-8.817 H 791 a 1.809,1.809 0 0 1 1.976,1.6 c 0.1,1.15 -0.669,1.868 -1.905,1.868 h -1.616 z m 1.85,9.716 h -1.852 v -3.95 h 1.779 a 1.993,1.993 0 0 1 2.165,1.824 1.94,1.94 0 0 1 -2.092,2.126" fill="#0085cd"></path>
      <path d="m 819,359.574 a 1.763,1.763 0 1 0 1.723,1.762 1.742,1.742 0 0 0 -1.723,-1.762" fill="#00beff"></path>
      <path d="m 822.565,347.177 a 2.094,2.094 0 0 0 -2.552,1.548 c -0.006,0.029 -0.011,0.058 -0.017,0.088 l -1.5,8.237 v 0 a 1.647,1.647 0 0 0 -0.039,0.354 1.575,1.575 0 0 0 3.115,0.367 v 0 l 2.508,-7.988 a 2.15,2.15 0 0 0 -1.514,-2.606" fill="#00beff"></path>
      <path d="m 827.227,359.67 v -11.424 h -1.465 l -1.951,6.219 v 5.189 a 3.406,3.406 0 0 0 3.367,3.444 h 3.952 v -3.428 z" fill="#ff5515"></path>
      <path d="m 814.26,357.063 v 6.037 h -3.416 v -11.409 a 3.407,3.407 0 0 1 3.367,-3.445 h 4.682 l -0.629,3.44 h -4 v 1.884 h 3.662 l -0.627,3.441 h -3.034 z" fill="#ff5515"></path>
    </g>
  </g>
</svg>